<svg width="122" height="31" viewBox="0 0 122 31" fill="none" xmlns="http://www.w3.org/2000/svg">
<path d="M29.8722 0.90909L25.0426 30H19.7301L10.142 11.6903H9.91477L6.8608 30H0.710227L5.53977 0.90909H10.9375L20.483 19.2045H20.7244L23.75 0.90909H29.8722ZM30.1243 30L34.9538 0.90909H54.5561L53.7038 5.98011H40.2521L39.1158 12.9119H51.5589L50.7067 17.983H38.2635L37.1271 24.929H50.6357L49.7834 30H30.1243ZM61.1648 30L57.6705 0.90909H64.3892L65.8665 21.1222H66.108L74.7585 0.90909H80.5114L82.4716 21.1648H82.7273L90.8807 0.90909H97.5994L84.446 30H78.4517L76.0938 10.9801H75.8665L67.1591 30H61.1648ZM114.979 9.3608C115.026 8.17708 114.68 7.26326 113.942 6.61932C113.213 5.97538 112.109 5.65341 110.632 5.65341C109.628 5.65341 108.757 5.79545 108.018 6.07955C107.28 6.35417 106.688 6.73769 106.243 7.23011C105.807 7.71307 105.537 8.27178 105.433 8.90625C105.329 9.42708 105.362 9.88163 105.533 10.2699C105.713 10.6581 105.992 10.9943 106.371 11.2784C106.759 11.553 107.218 11.7945 107.749 12.0028C108.279 12.2017 108.842 12.3722 109.439 12.5142L111.939 13.1392C113.161 13.4233 114.259 13.8021 115.234 14.2756C116.219 14.7491 117.043 15.3314 117.706 16.0227C118.378 16.714 118.852 17.5284 119.126 18.4659C119.401 19.4034 119.439 20.4782 119.24 21.6903C118.937 23.4706 118.232 25.0142 117.124 26.321C116.016 27.6184 114.562 28.6269 112.763 29.3466C110.964 30.0568 108.88 30.4119 106.513 30.4119C104.164 30.4119 102.18 30.0521 100.561 29.3324C98.9418 28.6127 97.7628 27.5473 97.0241 26.1364C96.295 24.7159 96.0772 22.9593 96.3707 20.8665H102.322C102.218 21.8419 102.36 22.6562 102.749 23.3097C103.146 23.9536 103.738 24.4413 104.524 24.7727C105.31 25.0947 106.233 25.2557 107.294 25.2557C108.345 25.2557 109.278 25.1042 110.092 24.8011C110.916 24.4981 111.584 24.0767 112.095 23.5369C112.607 22.9972 112.919 22.3769 113.033 21.6761C113.146 21.0227 113.047 20.4735 112.734 20.0284C112.422 19.5833 111.92 19.2045 111.229 18.892C110.547 18.5701 109.699 18.286 108.686 18.0398L105.646 17.2443C103.298 16.6477 101.522 15.715 100.32 14.446C99.117 13.1771 98.6861 11.4678 99.027 9.31818C99.33 7.55682 100.064 6.01799 101.229 4.7017C102.403 3.37595 103.88 2.34848 105.661 1.61932C107.45 0.880681 109.406 0.511363 111.527 0.511363C113.686 0.511363 115.509 0.885416 116.996 1.63352C118.482 2.37216 119.567 3.40436 120.249 4.73011C120.93 6.05587 121.139 7.59943 120.874 9.3608H114.979Z" fill="#E72B2B"/>
</svg>
